<svg width="1567" height="969" viewBox="0 0 1567 969" fill="none" xmlns="http://www.w3.org/2000/svg">
<g opacity="0.25">
<path d="M969 599.5H1565" stroke="black" stroke-width="3"/>
<path d="M2.29206 966.5C-1.04127 881.833 22.7921 662.2 144.792 461C266.792 259.8 468.959 133.5 554.792 95.5L649.5 59L722.292 34.5L783.5 19.5L843.292 11.5L891.292 5L926.792 2H969.792L1005.5 3.5L1069.5 10.5L1106.29 18L1136.29 26L1163.79 34L1188.79 43.5L1207.79 52L1224.79 59.5L1238.79 66.5L1263.29 79.5L1285.29 92.5L1303.79 105L1322.29 118.5L1336.79 129L1351.79 141.5L1368.79 156.5L1385.79 172L1395.29 181L1405.29 192L1413.29 201.5L1425.29 214.5L1440.79 233.5L1457.29 256L1468.29 273L1478.79 290L1491.29 311.5L1504.29 335.5L1515.29 359.5L1523.79 380L1530.29 399L1537.29 419L1543.79 441.5L1550.29 467C1551.46 473.167 1553.89 486 1554.29 488C1554.69 490 1557.79 508.5 1559.29 517.5L1562.79 549L1563.79 569.5L1564.79 599L1563.79 629.5L1559.79 659L1551.29 698.5L1535.29 743L1523.79 767L1512.79 787.5L1499.79 807L1487.79 823.5L1470.79 844L1453.79 862L1438.29 876L1424.79 887.5L1409.79 899L1368.79 924.5L1338.29 939L1306.29 950L1278.79 957.5L1262.29 961L1235.79 965L1207.29 967H1190.29L1168.79 965L1145.79 961L1122.29 955L1099.29 945.5L1070.29 929L1055.29 917.5L1036.79 901L1023.79 886.5L1008.29 866L994.292 842L983.792 818L977.292 795L972.292 774L969.292 756.5V739V726.5L971.5 715.5L975.292 702.5L981.292 685L989.792 669L997.792 657.5L1006.29 646L1017.29 635.5L1031.29 625L1048.79 615L1064.29 608.5L1079.29 605L1095.79 602L1109.29 601.5L1120.29 602L1133.79 605L1144.79 609L1156.29 615L1169.79 626.5L1180.29 638.5L1186.79 650.5L1190.79 659.5L1193.79 669L1196 677.5L1197 687L1195 697L1190.79 710L1184.29 720L1177.29 727.5L1169.29 733L1160.79 737L1152 740L1143 741L1135.5 740L1127.29 735.5L1119.5 728.5L1114.79 721.5L1111.79 715.5L1110 707.5L1111.79 701.5L1116 695L1119.29 692L1124.79 689L1128.5 687H1130.5L1132.5 687.5L1136.29 689.5L1139.29 692L1141 694.5L1143 698.5V700.5L1140 704L1137.79 706H1134.79M1134.79 706H1133.29L1131.29 704V702.5L1133.29 700.5H1134.79V706Z" stroke="black" stroke-width="3"/>
<path d="M969 3V968.753" stroke="black" stroke-width="3"/>
<path d="M1197 600V967" stroke="black" stroke-width="3"/>
<path d="M1197 741H969" stroke="black" stroke-width="3"/>
<path d="M1110 741V600" stroke="black" stroke-width="3"/>
<path d="M1110 687H1197" stroke="black" stroke-width="3"/>
<path d="M1143 687V741" stroke="black" stroke-width="3"/>
<path d="M1143 707H1110" stroke="black" stroke-width="3"/>
<path d="M1130 707L1130 687" stroke="black" stroke-width="3"/>
<path d="M1130.5 699.5H1143" stroke="black" stroke-width="3"/>
<path d="M1135.5 699.5V707" stroke="black" stroke-width="3"/>
</g>
</svg>
