<svg width="29" height="20" viewBox="0 0 29 20" fill="none" xmlns="http://www.w3.org/2000/svg">
<path fill-rule="evenodd" clip-rule="evenodd" d="M10.3667 15.6475H10.517L10.5 19H8.49599L8.51303 15.6475H8.66333V11.3636H8H7.25V19H6V11.3636H5.21263V10.5455H8.66333V9.5808H4.60521L4.25 8.90909L4 8.36364L8.66333 8.32374V5.97358H6.25852L5.70742 5.15376H5.40681V4.93514H7.86172V4.85315H9.55808V4.47057H10.1092L10.51 4.74384V3.37747L8.66333 3.43503V3.2955L4.47996 3.02223L3.65331 2.0931H3.1022L2 1L5.85772 1.27327L6.70942 1.32793L11.2184 1.43724H12.3206H16.7295H17.8317L22.3407 1.32793L23.1924 1.27327L27 1.05465L25.8978 2.0931H25.3968L24.5451 3.02223L23.5431 3.13154L21.2385 3.24085V4.77118L21.5892 4.49791H22.0902V4.93514H24.5451V5.15376H24.2445L23.6182 5.94626H21.2635V8.35107H26.093L25.75 8.90909L25.3216 9.55347H21.2635V10.5455H24.6202V11.3565L24 11.3636V19L22.75 18.9929V11.3636H21.2635V15.6622H21.4138V19H19.4098V15.6287H19.5601V9.60813H18.9589V8.29641H19.5601V6.00091L10.3667 5.94626V8.32374H10.9679V9.5808H10.3667V15.6475Z" fill="#050000"/>
<path d="M10.517 15.6475L11.017 15.65L11.0196 15.1475H10.517V15.6475ZM10.3667 15.6475H9.86673V16.1475H10.3667V15.6475ZM10.5 19V19.5H10.9975L11 19.0025L10.5 19ZM8.49599 19L7.996 18.9975L7.99345 19.5H8.49599V19ZM8.51303 15.6475V15.1475H8.01556L8.01303 15.6449L8.51303 15.6475ZM8.66333 15.6475V16.1475H9.16333V15.6475H8.66333ZM8.66333 11.3636H9.16333V10.8636H8.66333V11.3636ZM7.25 11.3636V10.8636H6.75V11.3636H7.25ZM7.25 19V19.5H7.75V19H7.25ZM6 19H5.5V19.5H6V19ZM6 11.3636H6.5V10.8636H6V11.3636ZM5.21263 11.3636H4.71263V11.8636H5.21263V11.3636ZM5.21263 10.5455V10.0455H4.71263V10.5455H5.21263ZM8.66333 10.5455V11.0455H9.16333V10.5455H8.66333ZM8.66333 9.5808H9.16333V9.0808H8.66333V9.5808ZM4.60521 9.5808L4.16321 9.81454L4.30401 10.0808H4.60521V9.5808ZM4.25 8.90909L3.79547 9.11742L3.80137 9.1303L3.808 9.14283L4.25 8.90909ZM4 8.36364L3.99572 7.86365L3.22385 7.87026L3.54547 8.57196L4 8.36364ZM8.66333 8.32374L8.66761 8.82372L9.16333 8.81948V8.32374H8.66333ZM8.66333 5.97358H9.16333V5.47358H8.66333V5.97358ZM6.25852 5.97358L5.84356 6.25253L5.99216 6.47358H6.25852V5.97358ZM5.70742 5.15376L6.12237 4.87482L5.97377 4.65376H5.70742V5.15376ZM5.40681 5.15376H4.90681V5.65376H5.40681V5.15376ZM5.40681 4.93514V4.43514H4.90681V4.93514H5.40681ZM7.86172 4.93514V5.43514H8.36172V4.93514H7.86172ZM7.86172 4.85315V4.35315H7.36172V4.85315H7.86172ZM9.55808 4.85315V5.35315H10.0581V4.85315H9.55808ZM9.55808 4.47057V3.97057H9.05808V4.47057H9.55808ZM10.1092 4.47057L10.3908 4.05746L10.2634 3.97057H10.1092V4.47057ZM10.51 4.74384L10.2283 5.15696L11.01 5.68991V4.74384H10.51ZM10.51 3.37747H11.01V2.86165L10.4944 2.87772L10.51 3.37747ZM8.66333 3.43503H8.16333V3.95086L8.6789 3.93479L8.66333 3.43503ZM8.66333 3.2955H9.16333V2.8271L8.69592 2.79656L8.66333 3.2955ZM4.47996 3.02223L4.10641 3.35458L4.24272 3.5078L4.44737 3.52116L4.47996 3.02223ZM3.65331 2.0931L4.02686 1.76074L3.8777 1.5931H3.65331V2.0931ZM3.1022 2.0931L2.75012 2.44811L2.89631 2.5931H3.1022V2.0931ZM2 1L2.03533 0.50125L0.691012 0.406021L1.64792 1.35502L2 1ZM5.85772 1.27327L5.82238 1.77204L5.8257 1.77225L5.85772 1.27327ZM6.70942 1.32793L6.6774 1.8269L6.68734 1.82754L6.6973 1.82778L6.70942 1.32793ZM11.2184 1.43724L11.2063 1.93724H11.2184V1.43724ZM17.8317 1.43724V1.93739L17.8438 1.93709L17.8317 1.43724ZM22.3407 1.32793L22.3528 1.82778L22.3628 1.82754L22.3727 1.8269L22.3407 1.32793ZM23.1924 1.27327L23.1637 0.774085L23.1604 0.7743L23.1924 1.27327ZM27 1.05465L27.3429 1.41858L28.3425 0.476748L26.9713 0.555477L27 1.05465ZM25.8978 2.0931V2.5931H26.0962L26.2407 2.45702L25.8978 2.0931ZM25.3968 2.0931V1.5931H25.1768L25.0282 1.75523L25.3968 2.0931ZM24.5451 3.02223L24.5993 3.51928L24.7865 3.49886L24.9137 3.36009L24.5451 3.02223ZM23.5431 3.13154L23.5668 3.63097L23.5821 3.63025L23.5973 3.62859L23.5431 3.13154ZM21.2385 3.24085L21.2148 2.74141L20.7385 2.764V3.24085H21.2385ZM21.2385 4.77118H20.7385V5.79466L21.5458 5.16558L21.2385 4.77118ZM21.5892 4.49791V3.99791H21.4174L21.2819 4.1035L21.5892 4.49791ZM22.0902 4.49791H22.5902V3.99791H22.0902V4.49791ZM22.0902 4.93514H21.5902V5.43514H22.0902V4.93514ZM24.5451 4.93514H25.0451V4.43514H24.5451V4.93514ZM24.5451 5.15376V5.65376H25.0451V5.15376H24.5451ZM24.2445 5.15376V4.65376H24.0023L23.8522 4.84376L24.2445 5.15376ZM23.6182 5.94626V6.44626H23.8604L24.0105 6.25626L23.6182 5.94626ZM21.2635 5.94626V5.44626H20.7635V5.94626H21.2635ZM21.2635 8.35107H20.7635V8.85107H21.2635V8.35107ZM26.093 8.35107L26.519 8.61289L26.9872 7.85107H26.093V8.35107ZM25.75 8.90909L26.1664 9.18589L26.1713 9.17849L26.176 9.17092L25.75 8.90909ZM25.3216 9.55347V10.0535H25.5897L25.738 9.83027L25.3216 9.55347ZM21.2635 9.55347V9.05347H20.7635V9.55347H21.2635ZM21.2635 10.5455H20.7635V11.0455H21.2635V10.5455ZM24.6202 10.5455H25.1202V10.0455H24.6202V10.5455ZM24.6202 11.3565L24.626 11.8565L25.1202 11.8508V11.3565H24.6202ZM24 11.3636L23.9943 10.8637L23.5 10.8693V11.3636H24ZM24 19L23.9972 19.5L24.5 19.5028V19H24ZM22.75 18.9929H22.25V19.4901L22.7472 19.4929L22.75 18.9929ZM22.75 11.3636H23.25V10.8636H22.75V11.3636ZM21.2635 11.3636V10.8636H20.7635V11.3636H21.2635ZM21.2635 15.6622H20.7635V16.1622H21.2635V15.6622ZM21.4138 15.6622H21.9138V15.1622H21.4138V15.6622ZM21.4138 19V19.5H21.9138V19H21.4138ZM19.4098 19H18.9098V19.5H19.4098V19ZM19.4098 15.6287V15.1287H18.9098V15.6287H19.4098ZM19.5601 15.6287V16.1287H20.0601V15.6287H19.5601ZM19.5601 9.60813H20.0601V9.10813H19.5601V9.60813ZM18.9589 9.60813H18.4589V10.1081H18.9589V9.60813ZM18.9589 8.29641V7.79641H18.4589V8.29641H18.9589ZM19.5601 8.29641V8.79641H20.0601V8.29641H19.5601ZM19.5601 6.00091H20.0601V5.50387L19.5631 5.50092L19.5601 6.00091ZM10.3667 5.94626L10.3697 5.44627L9.86673 5.44328V5.94626H10.3667ZM10.3667 8.32374H9.86673V8.82374H10.3667V8.32374ZM10.9679 8.32374H11.4679V7.82374H10.9679V8.32374ZM10.9679 9.5808V10.0808H11.4679V9.5808H10.9679ZM10.3667 9.5808V9.0808H9.86673V9.5808H10.3667ZM10.517 15.1475H10.3667V16.1475H10.517V15.1475ZM11 19.0025L11.017 15.65L10.017 15.6449L10 18.9975L11 19.0025ZM8.49599 19.5H10.5V18.5H8.49599V19.5ZM8.01303 15.6449L7.996 18.9975L8.99599 19.0025L9.01302 15.65L8.01303 15.6449ZM8.66333 15.1475H8.51303V16.1475H8.66333V15.1475ZM8.16333 11.3636V15.6475H9.16333V11.3636H8.16333ZM8 11.8636H8.66333V10.8636H8V11.8636ZM7.25 11.8636H8V10.8636H7.25V11.8636ZM7.75 19V11.3636H6.75V19H7.75ZM6 19.5H7.25V18.5H6V19.5ZM5.5 11.3636V19H6.5V11.3636H5.5ZM5.21263 11.8636H6V10.8636H5.21263V11.8636ZM4.71263 10.5455V11.3636H5.71263V10.5455H4.71263ZM8.66333 10.0455H5.21263V11.0455H8.66333V10.0455ZM8.16333 9.5808V10.5455H9.16333V9.5808H8.16333ZM4.60521 10.0808H8.66333V9.0808H4.60521V10.0808ZM3.808 9.14283L4.16321 9.81454L5.04721 9.34706L4.692 8.67535L3.808 9.14283ZM3.54547 8.57196L3.79547 9.11742L4.70453 8.70076L4.45453 8.15531L3.54547 8.57196ZM8.65905 7.82376L3.99572 7.86365L4.00428 8.86362L8.66761 8.82372L8.65905 7.82376ZM8.16333 5.97358V8.32374H9.16333V5.97358H8.16333ZM6.25852 6.47358H8.66333V5.47358H6.25852V6.47358ZM5.29246 5.43271L5.84356 6.25253L6.67348 5.69464L6.12237 4.87482L5.29246 5.43271ZM5.40681 5.65376H5.70742V4.65376H5.40681V5.65376ZM4.90681 4.93514V5.15376H5.90681V4.93514H4.90681ZM7.86172 4.43514H5.40681V5.43514H7.86172V4.43514ZM7.36172 4.85315V4.93514H8.36172V4.85315H7.36172ZM7.86172 5.35315H9.55808V4.35315H7.86172V5.35315ZM10.0581 4.85315V4.47057H9.05808V4.85315H10.0581ZM9.55808 4.97057H10.1092V3.97057H9.55808V4.97057ZM9.82751 4.88368L10.2283 5.15696L10.7917 4.33073L10.3908 4.05746L9.82751 4.88368ZM11.01 4.74384V3.37747H10.01V4.74384H11.01ZM10.4944 2.87772L8.64775 2.93527L8.6789 3.93479L10.5256 3.87723L10.4944 2.87772ZM8.16333 3.2955V3.43503H9.16333V3.2955H8.16333ZM4.44737 3.52116L8.63074 3.79444L8.69592 2.79656L4.51255 2.52329L4.44737 3.52116ZM3.27975 2.42545L4.10641 3.35458L4.85351 2.68987L4.02686 1.76074L3.27975 2.42545ZM3.1022 2.5931H3.65331V1.5931H3.1022V2.5931ZM1.64792 1.35502L2.75012 2.44811L3.45429 1.73808L2.35208 0.644983L1.64792 1.35502ZM5.89305 0.774524L2.03533 0.50125L1.96467 1.49875L5.82239 1.77202L5.89305 0.774524ZM6.74144 0.828955L5.88974 0.7743L5.8257 1.77225L6.6774 1.8269L6.74144 0.828955ZM11.2306 0.937385L6.72154 0.828075L6.6973 1.82778L11.2063 1.93709L11.2306 0.937385ZM12.3206 0.937238H11.2184V1.93724H12.3206V0.937238ZM16.7295 0.937238H12.3206V1.93724H16.7295V0.937238ZM17.8317 0.937238H16.7295V1.93724H17.8317V0.937238ZM22.3286 0.828075L17.8195 0.937385L17.8438 1.93709L22.3528 1.82778L22.3286 0.828075ZM23.1604 0.7743L22.3087 0.828955L22.3727 1.8269L23.2244 1.77225L23.1604 0.7743ZM26.9713 0.555477L23.1637 0.774096L23.221 1.77245L27.0287 1.55383L26.9713 0.555477ZM26.2407 2.45702L27.3429 1.41858L26.6571 0.690731L25.5549 1.72917L26.2407 2.45702ZM25.3968 2.5931H25.8978V1.5931H25.3968V2.5931ZM24.9137 3.36009L25.7654 2.43096L25.0282 1.75523L24.1765 2.68436L24.9137 3.36009ZM23.5973 3.62859L24.5993 3.51928L24.4909 2.52518L23.4889 2.63448L23.5973 3.62859ZM21.2622 3.74028L23.5668 3.63097L23.5194 2.6321L21.2148 2.74141L21.2622 3.74028ZM21.7385 4.77118V3.24085H20.7385V4.77118H21.7385ZM21.2819 4.1035L20.9312 4.37678L21.5458 5.16558L21.8965 4.89231L21.2819 4.1035ZM22.0902 3.99791H21.5892V4.99791H22.0902V3.99791ZM22.5902 4.93514V4.49791H21.5902V4.93514H22.5902ZM24.5451 4.43514H22.0902V5.43514H24.5451V4.43514ZM25.0451 5.15376V4.93514H24.0451V5.15376H25.0451ZM24.2445 5.65376H24.5451V4.65376H24.2445V5.65376ZM24.0105 6.25626L24.6368 5.46377L23.8522 4.84376L23.2259 5.63625L24.0105 6.25626ZM21.2635 6.44626H23.6182V5.44626H21.2635V6.44626ZM21.7635 8.35107V5.94626H20.7635V8.35107H21.7635ZM26.093 7.85107H21.2635V8.85107H26.093V7.85107ZM26.176 9.17092L26.519 8.61289L25.667 8.08924L25.324 8.64726L26.176 9.17092ZM25.738 9.83027L26.1664 9.18589L25.3336 8.63229L24.9053 9.27667L25.738 9.83027ZM21.2635 10.0535H25.3216V9.05347H21.2635V10.0535ZM21.7635 10.5455V9.55347H20.7635V10.5455H21.7635ZM24.6202 10.0455H21.2635V11.0455H24.6202V10.0455ZM25.1202 11.3565V10.5455H24.1202V11.3565H25.1202ZM24.0057 11.8636L24.626 11.8565L24.6145 10.8566L23.9943 10.8637L24.0057 11.8636ZM24.5 19V11.3636H23.5V19H24.5ZM22.7472 19.4929L23.9972 19.5L24.0028 18.5L22.7528 18.4929L22.7472 19.4929ZM22.25 11.3636V18.9929H23.25V11.3636H22.25ZM21.2635 11.8636H22.75V10.8636H21.2635V11.8636ZM21.7635 15.6622V11.3636H20.7635V15.6622H21.7635ZM21.4138 15.1622H21.2635V16.1622H21.4138V15.1622ZM21.9138 19V15.6622H20.9138V19H21.9138ZM19.4098 19.5H21.4138V18.5H19.4098V19.5ZM18.9098 15.6287V19H19.9098V15.6287H18.9098ZM19.5601 15.1287H19.4098V16.1287H19.5601V15.1287ZM19.0601 9.60813V15.6287H20.0601V9.60813H19.0601ZM18.9589 10.1081H19.5601V9.10813H18.9589V10.1081ZM18.4589 8.29641V9.60813H19.4589V8.29641H18.4589ZM19.5601 7.79641H18.9589V8.79641H19.5601V7.79641ZM19.0601 6.00091V8.29641H20.0601V6.00091H19.0601ZM10.3638 6.44625L19.5571 6.5009L19.5631 5.50092L10.3697 5.44627L10.3638 6.44625ZM10.8667 8.32374V5.94626H9.86673V8.32374H10.8667ZM10.9679 7.82374H10.3667V8.82374H10.9679V7.82374ZM11.4679 9.5808V8.32374H10.4679V9.5808H11.4679ZM10.3667 10.0808H10.9679V9.0808H10.3667V10.0808ZM10.8667 15.6475V9.5808H9.86673V15.6475H10.8667Z" fill="black"/>
</svg>
